<svg width="16" height="20" viewBox="0 0 16 20" fill="none" xmlns="http://www.w3.org/2000/svg">
<path d="M2.79311 0.465884L3.95458 0.116548C4.59084 -0.0753143 5.27517 -0.0291279 5.87988 0.246489C6.48459 0.522106 6.96836 1.00832 7.24093 1.61441L8.13865 3.6109C8.373 4.13222 8.43826 4.71383 8.32527 5.27412C8.21229 5.83441 7.92672 6.34527 7.50865 6.73502L6.02173 8.12142C5.97827 8.16192 5.95073 8.21665 5.9441 8.27569C5.90031 8.6708 6.16804 9.44014 6.7851 10.51C7.23396 11.2873 7.64102 11.8337 7.98638 12.1393C8.22723 12.3533 8.3596 12.399 8.41633 12.3831L10.4168 11.771C10.9631 11.6039 11.548 11.612 12.0895 11.794C12.631 11.9761 13.102 12.323 13.4364 12.7862L14.7113 14.5538C15.099 15.0913 15.2785 15.7513 15.2165 16.4111C15.1544 17.071 14.8551 17.6859 14.374 18.1417L13.4922 18.9777C13.0241 19.4209 12.4493 19.7353 11.8237 19.8904C11.1981 20.0455 10.543 20.0358 9.92216 19.8625C7.18121 19.0971 4.72392 16.7842 2.5224 12.9713C0.317902 9.1535 -0.455415 5.86517 0.257191 3.10531C0.417602 2.4846 0.7352 1.91568 1.17937 1.45338C1.62354 0.991078 2.17931 0.650986 2.79311 0.465884ZM3.22406 1.89607C2.85589 2.007 2.52248 2.21086 2.25595 2.48802C1.98942 2.76518 1.79875 3.10631 1.70231 3.47854C1.10316 5.79948 1.7889 8.71459 3.81524 12.2249C5.83861 15.7302 8.01723 17.7804 10.3242 18.4253C10.6966 18.5291 11.0895 18.5346 11.4646 18.4415C11.8398 18.3483 12.1844 18.1597 12.465 17.8939L13.3478 17.0579C13.5666 16.8506 13.7027 16.571 13.7309 16.271C13.7591 15.971 13.6775 15.671 13.5011 15.4266L12.2272 13.66C12.0752 13.4493 11.861 13.2914 11.6146 13.2085C11.3683 13.1257 11.1022 13.1221 10.8537 13.1982L8.84827 13.8123C7.68382 14.1587 6.62685 13.2221 5.49226 11.2565C4.7279 9.93279 4.37159 8.90768 4.46017 8.11047C4.50695 7.69644 4.69903 7.31426 5.00358 7.02962L6.4905 5.64322C6.68062 5.46608 6.81049 5.23386 6.8619 4.97914C6.91331 4.72442 6.88367 4.46 6.77714 4.22299L5.87941 2.2265C5.75552 1.95122 5.53577 1.73037 5.2611 1.60513C4.98643 1.47988 4.6756 1.45877 4.38652 1.54574L3.22406 1.89607Z" fill="#664EA4"/>
</svg>
