<svg width="60" height="60" viewBox="0 0 60 60" fill="none" xmlns="http://www.w3.org/2000/svg">
<mask id="path-1-outside-1_1_21" maskUnits="userSpaceOnUse" x="6" y="10" width="45" height="42" fill="black">
<rect fill="white" x="6" y="10" width="45" height="42"/>
<path d="M48.81 37.2531C48.0748 36.7865 47.1504 36.7328 46.3659 37.1115L39.1284 40.4547C39.1445 40.3395 39.1532 40.2234 39.1541 40.1072C39.1541 40.094 39.158 40.0814 39.158 40.0676V40.0525C39.1529 39.3723 38.879 38.7217 38.3967 38.2422C37.914 37.7628 37.2619 37.4931 36.5816 37.4918H31.7738C29.6054 35.4911 26.8202 34.2889 23.877 34.0827C21.0004 34.0167 18.4404 34.0531 17.4664 34.0733V34.0737C17.4632 33.5193 17.2409 32.9887 16.848 32.5974C16.4551 32.2061 15.9235 31.986 15.3692 31.9854H9.09891C8.54257 31.986 8.00912 32.2074 7.61554 32.6009C7.22203 32.9941 7.00065 33.5276 7 34.0843V45.3413C7.00064 45.8977 7.2217 46.4311 7.61522 46.8247C8.00875 47.2183 8.54224 47.4396 9.09892 47.4399H15.3692C15.8737 47.4386 16.3605 47.2552 16.7408 46.9235C17.1209 46.5917 17.3686 46.1342 17.4381 45.6345C19.5856 46.8865 26.9002 51 30.2223 51C30.2928 51 30.3607 51 30.4273 50.9942C36.0582 50.6747 48.2255 41.9489 48.7024 41.6021L48.7027 41.6018C49.4824 41.1658 49.9741 40.3505 49.9956 39.4572C50.0175 38.564 49.5657 37.7257 48.8079 37.2524L48.81 37.2531ZM16.6436 45.3411C16.6443 45.6796 16.5101 46.0043 16.2707 46.244C16.0316 46.4837 15.7073 46.6185 15.3688 46.6189H9.09852C8.76034 46.6185 8.43632 46.484 8.19729 46.245C7.95822 46.0059 7.82371 45.6815 7.82339 45.3437V34.0842C7.82371 33.746 7.95821 33.422 8.19729 33.183C8.43635 32.9439 8.76037 32.8094 9.09852 32.8091H15.3688C15.7067 32.8094 16.031 32.9439 16.27 33.183C16.5091 33.4221 16.6433 33.7461 16.6436 34.0842L16.6436 45.3411ZM48.2614 40.9094C48.1376 40.9982 35.7746 49.8649 30.3825 50.1713C27.2372 50.3586 18.8652 45.5208 17.4665 44.6965V34.8974C18.4247 34.8772 20.9841 34.8363 23.8588 34.9068V34.9064C26.6588 35.113 29.3021 36.2797 31.3415 38.2094C31.4171 38.2773 31.5152 38.3153 31.6169 38.3156H36.5792C37.1256 38.3085 37.643 38.5595 37.976 38.9929C38.3087 39.4263 38.4175 39.9914 38.2694 40.5171C38.2601 40.5529 38.2492 40.587 38.2373 40.6214H38.2369C38.1945 40.7533 38.1359 40.8798 38.0625 40.9975C37.7437 41.5098 37.1835 41.8216 36.5805 41.8226H26.9956C26.7682 41.8226 26.5838 42.007 26.5838 42.2344C26.5838 42.4619 26.7682 42.6463 26.9956 42.6463H36.5788C37.4036 42.6447 38.177 42.2473 38.6591 41.578L46.7164 37.8542C47.2473 37.5984 47.8722 37.6331 48.3713 37.9465C48.8703 38.2599 49.1735 38.8076 49.1738 39.397C49.1709 39.7075 49.0846 40.0119 48.9241 40.2777C48.7635 40.5438 48.5347 40.7619 48.2612 40.9093L48.2614 40.9094ZM20.8149 22.4579H23.344C25.4066 27.5323 30.7543 31.266 33.1859 32.7578C33.5379 32.9731 33.9424 33.087 34.3552 33.087C34.7677 33.087 35.1721 32.9731 35.5241 32.7578C37.957 31.2645 43.3044 27.5281 45.3684 22.4571H47.8963C48.1238 22.4571 48.3081 22.2727 48.3081 22.0453C48.3081 21.8178 48.1238 21.6334 47.8963 21.6334H45.6558C45.8138 21.1623 45.9403 20.6812 46.0339 20.1935C46.459 17.9096 45.873 15.554 44.4273 13.7354C43.1402 12.0876 41.1929 11.0895 39.1033 11.0074C37.3977 10.9308 35.718 11.4486 34.3514 12.4727C32.9869 11.4512 31.3101 10.9331 29.607 11.0074C27.5168 11.0892 25.5688 12.0872 24.2811 13.7354C22.8354 15.554 22.2494 17.91 22.6751 20.1935C22.7678 20.6804 22.8936 21.1607 23.0513 21.6305H20.8108C20.5834 21.6305 20.399 21.8152 20.399 22.0424C20.399 22.2699 20.5834 22.4542 20.8108 22.4542L20.8149 22.4579ZM35.0926 32.0552C34.8709 32.1913 34.616 32.2633 34.356 32.2633C34.0957 32.2633 33.8409 32.1913 33.6192 32.0552C31.8095 30.9454 26.4145 27.3165 24.2543 22.4563H29.6236C29.7961 22.4566 29.9502 22.3491 30.0098 22.1873L31.8547 17.1967L33.9517 25.9965V25.9969C33.9932 26.1687 34.1393 26.2951 34.3156 26.3109C34.3282 26.3115 34.3407 26.3115 34.3529 26.3109C34.5161 26.3109 34.6634 26.2147 34.7294 26.066L37.7167 19.316L38.6508 22.1701C38.7062 22.3396 38.8641 22.4542 39.0424 22.4539H44.4577C42.2971 27.3167 36.902 30.9456 35.092 32.0544L35.0926 32.0552ZM23.4904 20.0477C23.1069 17.9974 23.6323 15.8815 24.9303 14.2489C26.0687 12.7896 27.7914 11.9054 29.6407 11.8311C29.7304 11.8311 29.8205 11.8259 29.9103 11.8259V11.8256C31.4342 11.823 32.912 12.3498 34.0907 13.3157C34.2426 13.4415 34.4623 13.4415 34.6139 13.3157C35.8675 12.2922 37.4532 11.7638 39.0701 11.8311C40.9218 11.9038 42.6475 12.7894 43.7872 14.2508C45.0852 15.8834 45.6107 17.9994 45.2277 20.0497C45.1232 20.5893 44.9748 21.1195 44.7847 21.6353H39.341L38.1688 18.0437H38.1685C38.1158 17.8816 37.9681 17.7686 37.7975 17.7606C37.6292 17.7567 37.4741 17.8526 37.4024 18.0048L34.4731 24.6184L32.3439 15.6843C32.3018 15.508 32.1492 15.3799 31.9684 15.3686C31.7876 15.3593 31.6212 15.4677 31.5572 15.637L29.3363 21.6338H23.9325C23.7427 21.1177 23.5947 20.5874 23.4904 20.0475L23.4904 20.0477Z"/>
</mask>
<path d="M48.81 37.2531C48.0748 36.7865 47.1504 36.7328 46.3659 37.1115L39.1284 40.4547C39.1445 40.3395 39.1532 40.2234 39.1541 40.1072C39.1541 40.094 39.158 40.0814 39.158 40.0676V40.0525C39.1529 39.3723 38.879 38.7217 38.3967 38.2422C37.914 37.7628 37.2619 37.4931 36.5816 37.4918H31.7738C29.6054 35.4911 26.8202 34.2889 23.877 34.0827C21.0004 34.0167 18.4404 34.0531 17.4664 34.0733V34.0737C17.4632 33.5193 17.2409 32.9887 16.848 32.5974C16.4551 32.2061 15.9235 31.986 15.3692 31.9854H9.09891C8.54257 31.986 8.00912 32.2074 7.61554 32.6009C7.22203 32.9941 7.00065 33.5276 7 34.0843V45.3413C7.00064 45.8977 7.2217 46.4311 7.61522 46.8247C8.00875 47.2183 8.54224 47.4396 9.09892 47.4399H15.3692C15.8737 47.4386 16.3605 47.2552 16.7408 46.9235C17.1209 46.5917 17.3686 46.1342 17.4381 45.6345C19.5856 46.8865 26.9002 51 30.2223 51C30.2928 51 30.3607 51 30.4273 50.9942C36.0582 50.6747 48.2255 41.9489 48.7024 41.6021L48.7027 41.6018C49.4824 41.1658 49.9741 40.3505 49.9956 39.4572C50.0175 38.564 49.5657 37.7257 48.8079 37.2524L48.81 37.2531ZM16.6436 45.3411C16.6443 45.6796 16.5101 46.0043 16.2707 46.244C16.0316 46.4837 15.7073 46.6185 15.3688 46.6189H9.09852C8.76034 46.6185 8.43632 46.484 8.19729 46.245C7.95822 46.0059 7.82371 45.6815 7.82339 45.3437V34.0842C7.82371 33.746 7.95821 33.422 8.19729 33.183C8.43635 32.9439 8.76037 32.8094 9.09852 32.8091H15.3688C15.7067 32.8094 16.031 32.9439 16.27 33.183C16.5091 33.4221 16.6433 33.7461 16.6436 34.0842L16.6436 45.3411ZM48.2614 40.9094C48.1376 40.9982 35.7746 49.8649 30.3825 50.1713C27.2372 50.3586 18.8652 45.5208 17.4665 44.6965V34.8974C18.4247 34.8772 20.9841 34.8363 23.8588 34.9068V34.9064C26.6588 35.113 29.3021 36.2797 31.3415 38.2094C31.4171 38.2773 31.5152 38.3153 31.6169 38.3156H36.5792C37.1256 38.3085 37.643 38.5595 37.976 38.9929C38.3087 39.4263 38.4175 39.9914 38.2694 40.5171C38.2601 40.5529 38.2492 40.587 38.2373 40.6214H38.2369C38.1945 40.7533 38.1359 40.8798 38.0625 40.9975C37.7437 41.5098 37.1835 41.8216 36.5805 41.8226H26.9956C26.7682 41.8226 26.5838 42.007 26.5838 42.2344C26.5838 42.4619 26.7682 42.6463 26.9956 42.6463H36.5788C37.4036 42.6447 38.177 42.2473 38.6591 41.578L46.7164 37.8542C47.2473 37.5984 47.8722 37.6331 48.3713 37.9465C48.8703 38.2599 49.1735 38.8076 49.1738 39.397C49.1709 39.7075 49.0846 40.0119 48.9241 40.2777C48.7635 40.5438 48.5347 40.7619 48.2612 40.9093L48.2614 40.9094ZM20.8149 22.4579H23.344C25.4066 27.5323 30.7543 31.266 33.1859 32.7578C33.5379 32.9731 33.9424 33.087 34.3552 33.087C34.7677 33.087 35.1721 32.9731 35.5241 32.7578C37.957 31.2645 43.3044 27.5281 45.3684 22.4571H47.8963C48.1238 22.4571 48.3081 22.2727 48.3081 22.0453C48.3081 21.8178 48.1238 21.6334 47.8963 21.6334H45.6558C45.8138 21.1623 45.9403 20.6812 46.0339 20.1935C46.459 17.9096 45.873 15.554 44.4273 13.7354C43.1402 12.0876 41.1929 11.0895 39.1033 11.0074C37.3977 10.9308 35.718 11.4486 34.3514 12.4727C32.9869 11.4512 31.3101 10.9331 29.607 11.0074C27.5168 11.0892 25.5688 12.0872 24.2811 13.7354C22.8354 15.554 22.2494 17.91 22.6751 20.1935C22.7678 20.6804 22.8936 21.1607 23.0513 21.6305H20.8108C20.5834 21.6305 20.399 21.8152 20.399 22.0424C20.399 22.2699 20.5834 22.4542 20.8108 22.4542L20.8149 22.4579ZM35.0926 32.0552C34.8709 32.1913 34.616 32.2633 34.356 32.2633C34.0957 32.2633 33.8409 32.1913 33.6192 32.0552C31.8095 30.9454 26.4145 27.3165 24.2543 22.4563H29.6236C29.7961 22.4566 29.9502 22.3491 30.0098 22.1873L31.8547 17.1967L33.9517 25.9965V25.9969C33.9932 26.1687 34.1393 26.2951 34.3156 26.3109C34.3282 26.3115 34.3407 26.3115 34.3529 26.3109C34.5161 26.3109 34.6634 26.2147 34.7294 26.066L37.7167 19.316L38.6508 22.1701C38.7062 22.3396 38.8641 22.4542 39.0424 22.4539H44.4577C42.2971 27.3167 36.902 30.9456 35.092 32.0544L35.0926 32.0552ZM23.4904 20.0477C23.1069 17.9974 23.6323 15.8815 24.9303 14.2489C26.0687 12.7896 27.7914 11.9054 29.6407 11.8311C29.7304 11.8311 29.8205 11.8259 29.9103 11.8259V11.8256C31.4342 11.823 32.912 12.3498 34.0907 13.3157C34.2426 13.4415 34.4623 13.4415 34.6139 13.3157C35.8675 12.2922 37.4532 11.7638 39.0701 11.8311C40.9218 11.9038 42.6475 12.7894 43.7872 14.2508C45.0852 15.8834 45.6107 17.9994 45.2277 20.0497C45.1232 20.5893 44.9748 21.1195 44.7847 21.6353H39.341L38.1688 18.0437H38.1685C38.1158 17.8816 37.9681 17.7686 37.7975 17.7606C37.6292 17.7567 37.4741 17.8526 37.4024 18.0048L34.4731 24.6184L32.3439 15.6843C32.3018 15.508 32.1492 15.3799 31.9684 15.3686C31.7876 15.3593 31.6212 15.4677 31.5572 15.637L29.3363 21.6338H23.9325C23.7427 21.1177 23.5947 20.5874 23.4904 20.0475L23.4904 20.0477Z" fill="white"/>
<path d="M48.81 37.2531C48.0748 36.7865 47.1504 36.7328 46.3659 37.1115L39.1284 40.4547C39.1445 40.3395 39.1532 40.2234 39.1541 40.1072C39.1541 40.094 39.158 40.0814 39.158 40.0676V40.0525C39.1529 39.3723 38.879 38.7217 38.3967 38.2422C37.914 37.7628 37.2619 37.4931 36.5816 37.4918H31.7738C29.6054 35.4911 26.8202 34.2889 23.877 34.0827C21.0004 34.0167 18.4404 34.0531 17.4664 34.0733V34.0737C17.4632 33.5193 17.2409 32.9887 16.848 32.5974C16.4551 32.2061 15.9235 31.986 15.3692 31.9854H9.09891C8.54257 31.986 8.00912 32.2074 7.61554 32.6009C7.22203 32.9941 7.00065 33.5276 7 34.0843V45.3413C7.00064 45.8977 7.2217 46.4311 7.61522 46.8247C8.00875 47.2183 8.54224 47.4396 9.09892 47.4399H15.3692C15.8737 47.4386 16.3605 47.2552 16.7408 46.9235C17.1209 46.5917 17.3686 46.1342 17.4381 45.6345C19.5856 46.8865 26.9002 51 30.2223 51C30.2928 51 30.3607 51 30.4273 50.9942C36.0582 50.6747 48.2255 41.9489 48.7024 41.6021L48.7027 41.6018C49.4824 41.1658 49.9741 40.3505 49.9956 39.4572C50.0175 38.564 49.5657 37.7257 48.8079 37.2524L48.81 37.2531ZM16.6436 45.3411C16.6443 45.6796 16.5101 46.0043 16.2707 46.244C16.0316 46.4837 15.7073 46.6185 15.3688 46.6189H9.09852C8.76034 46.6185 8.43632 46.484 8.19729 46.245C7.95822 46.0059 7.82371 45.6815 7.82339 45.3437V34.0842C7.82371 33.746 7.95821 33.422 8.19729 33.183C8.43635 32.9439 8.76037 32.8094 9.09852 32.8091H15.3688C15.7067 32.8094 16.031 32.9439 16.27 33.183C16.5091 33.4221 16.6433 33.7461 16.6436 34.0842L16.6436 45.3411ZM48.2614 40.9094C48.1376 40.9982 35.7746 49.8649 30.3825 50.1713C27.2372 50.3586 18.8652 45.5208 17.4665 44.6965V34.8974C18.4247 34.8772 20.9841 34.8363 23.8588 34.9068V34.9064C26.6588 35.113 29.3021 36.2797 31.3415 38.2094C31.4171 38.2773 31.5152 38.3153 31.6169 38.3156H36.5792C37.1256 38.3085 37.643 38.5595 37.976 38.9929C38.3087 39.4263 38.4175 39.9914 38.2694 40.5171C38.2601 40.5529 38.2492 40.587 38.2373 40.6214H38.2369C38.1945 40.7533 38.1359 40.8798 38.0625 40.9975C37.7437 41.5098 37.1835 41.8216 36.5805 41.8226H26.9956C26.7682 41.8226 26.5838 42.007 26.5838 42.2344C26.5838 42.4619 26.7682 42.6463 26.9956 42.6463H36.5788C37.4036 42.6447 38.177 42.2473 38.6591 41.578L46.7164 37.8542C47.2473 37.5984 47.8722 37.6331 48.3713 37.9465C48.8703 38.2599 49.1735 38.8076 49.1738 39.397C49.1709 39.7075 49.0846 40.0119 48.9241 40.2777C48.7635 40.5438 48.5347 40.7619 48.2612 40.9093L48.2614 40.9094ZM20.8149 22.4579H23.344C25.4066 27.5323 30.7543 31.266 33.1859 32.7578C33.5379 32.9731 33.9424 33.087 34.3552 33.087C34.7677 33.087 35.1721 32.9731 35.5241 32.7578C37.957 31.2645 43.3044 27.5281 45.3684 22.4571H47.8963C48.1238 22.4571 48.3081 22.2727 48.3081 22.0453C48.3081 21.8178 48.1238 21.6334 47.8963 21.6334H45.6558C45.8138 21.1623 45.9403 20.6812 46.0339 20.1935C46.459 17.9096 45.873 15.554 44.4273 13.7354C43.1402 12.0876 41.1929 11.0895 39.1033 11.0074C37.3977 10.9308 35.718 11.4486 34.3514 12.4727C32.9869 11.4512 31.3101 10.9331 29.607 11.0074C27.5168 11.0892 25.5688 12.0872 24.2811 13.7354C22.8354 15.554 22.2494 17.91 22.6751 20.1935C22.7678 20.6804 22.8936 21.1607 23.0513 21.6305H20.8108C20.5834 21.6305 20.399 21.8152 20.399 22.0424C20.399 22.2699 20.5834 22.4542 20.8108 22.4542L20.8149 22.4579ZM35.0926 32.0552C34.8709 32.1913 34.616 32.2633 34.356 32.2633C34.0957 32.2633 33.8409 32.1913 33.6192 32.0552C31.8095 30.9454 26.4145 27.3165 24.2543 22.4563H29.6236C29.7961 22.4566 29.9502 22.3491 30.0098 22.1873L31.8547 17.1967L33.9517 25.9965V25.9969C33.9932 26.1687 34.1393 26.2951 34.3156 26.3109C34.3282 26.3115 34.3407 26.3115 34.3529 26.3109C34.5161 26.3109 34.6634 26.2147 34.7294 26.066L37.7167 19.316L38.6508 22.1701C38.7062 22.3396 38.8641 22.4542 39.0424 22.4539H44.4577C42.2971 27.3167 36.902 30.9456 35.092 32.0544L35.0926 32.0552ZM23.4904 20.0477C23.1069 17.9974 23.6323 15.8815 24.9303 14.2489C26.0687 12.7896 27.7914 11.9054 29.6407 11.8311C29.7304 11.8311 29.8205 11.8259 29.9103 11.8259V11.8256C31.4342 11.823 32.912 12.3498 34.0907 13.3157C34.2426 13.4415 34.4623 13.4415 34.6139 13.3157C35.8675 12.2922 37.4532 11.7638 39.0701 11.8311C40.9218 11.9038 42.6475 12.7894 43.7872 14.2508C45.0852 15.8834 45.6107 17.9994 45.2277 20.0497C45.1232 20.5893 44.9748 21.1195 44.7847 21.6353H39.341L38.1688 18.0437H38.1685C38.1158 17.8816 37.9681 17.7686 37.7975 17.7606C37.6292 17.7567 37.4741 17.8526 37.4024 18.0048L34.4731 24.6184L32.3439 15.6843C32.3018 15.508 32.1492 15.3799 31.9684 15.3686C31.7876 15.3593 31.6212 15.4677 31.5572 15.637L29.3363 21.6338H23.9325C23.7427 21.1177 23.5947 20.5874 23.4904 20.0475L23.4904 20.0477Z" stroke="white" mask="url(#path-1-outside-1_1_21)"/>
</svg>
